HIERARCHY
ROOT Hips
{
  OFFSET -415.369 92.1786 1420.92
  CHANNELS 6 Xposition Yposition Zposition Zrotation Xrotation Yrotation
  JOINT Spine
  {
    OFFSET 0 8 0
    CHANNELS 6 Xposition Yposition Zposition Zrotation Xrotation Yrotation
    JOINT Spine1
    {
      OFFSET 0 8 0
      CHANNELS 6 Xposition Yposition Zposition Zrotation Xrotation Yrotation
      JOINT Spine2
      {
        OFFSET 0 8 0
        CHANNELS 6 Xposition Yposition Zposition Zrotation Xrotation Yrotation
        JOINT Spine3
        {
          OFFSET 0 8 0
          CHANNELS 6 Xposition Yposition Zposition Zrotation Xrotation Yrotation
          JOINT Neck
          {
            OFFSET 0 17 0
            CHANNELS 6 Xposition Yposition Zposition Zrotation Xrotation Yrotation
            JOINT Head
            {
              OFFSET 0 10.8 0
              CHANNELS 6 Xposition Yposition Zposition Zrotation Xrotation Yrotation
              End Site
              {
                OFFSET 0 20.25 0
              }
            }
          }
          JOINT LeftShoulder
          {
            OFFSET 5 17 0
            CHANNELS 6 Xposition Yposition Zposition Zrotation Xrotation Yrotation
            JOINT LeftShoulder2
            {
              OFFSET 6.45 0 0
              CHANNELS 6 Xposition Yposition Zposition Zrotation Xrotation Yrotation
              JOINT LeftArm
              {
                OFFSET 6.45 0 0
                CHANNELS 6 Xposition Yposition Zposition Zrotation Xrotation Yrotation
                JOINT LeftForeArm
                {
                  OFFSET 0 -32.4 -2
                  CHANNELS 6 Xposition Yposition Zposition Zrotation Xrotation Yrotation
                  JOINT LeftHand
                  {
                    OFFSET 0 -25.65 2
                    CHANNELS 6 Xposition Yposition Zposition Zrotation Xrotation Yrotation
                    JOINT LeftHandThumb1
                    {
                      OFFSET -0.5 -1.5 2.65
                      CHANNELS 6 Xposition Yposition Zposition Zrotation Xrotation Yrotation
                      JOINT LeftHandThumb2
                      {
                        OFFSET 0 -3.8 3.7
                        CHANNELS 6 Xposition Yposition Zposition Zrotation Xrotation Yrotation
                        JOINT LeftHandThumb3
                        {
                          OFFSET 0 -3 2.7
                          CHANNELS 6 Xposition Yposition Zposition Zrotation Xrotation Yrotation
                          End Site
                          {
                            OFFSET 0 -2.3 1.8
                          }
                        }
                      }
                    }
                    JOINT LeftHandIndex
                    {
                      OFFSET 0 -1.9 1.6
                      CHANNELS 6 Xposition Yposition Zposition Zrotation Xrotation Yrotation
                      JOINT LeftHandIndex1
                      {
                        OFFSET 0 -8.3 1.9
                        CHANNELS 6 Xposition Yposition Zposition Zrotation Xrotation Yrotation
                        JOINT LeftHandIndex2
                        {
                          OFFSET 0 -4.5 0
                          CHANNELS 6 Xposition Yposition Zposition Zrotation Xrotation Yrotation
                          JOINT LeftHandIndex3
                          {
                            OFFSET 0 -3.4 0
                            CHANNELS 6 Xposition Yposition Zposition Zrotation Xrotation Yrotation
                            End Site
                            {
                              OFFSET 0 -2.6 0
                            }
                          }
                        }
                      }
                    }
                    JOINT LeftHandMiddle
                    {
                      OFFSET -0.25 -2.2 0.4
                      CHANNELS 6 Xposition Yposition Zposition Zrotation Xrotation Yrotation
                      JOINT LeftHandMiddle1
                      {
                        OFFSET 0 -8.3 1
                        CHANNELS 6 Xposition Yposition Zposition Zrotation Xrotation Yrotation
                        JOINT LeftHandMiddle2
                        {
                          OFFSET 0 -4.65 0
                          CHANNELS 6 Xposition Yposition Zposition Zrotation Xrotation Yrotation
                          JOINT LeftHandMiddle3
                          {
                            OFFSET 0 -3.3 0
                            CHANNELS 6 Xposition Yposition Zposition Zrotation Xrotation Yrotation
                            End Site
                            {
                              OFFSET 0 -2.7 0
                            }
                          }
                        }
                      }
                    }
                    JOINT LeftHandRing
                    {
                      OFFSET -0.5 -2.15 -0.8
                      CHANNELS 6 Xposition Yposition Zposition Zrotation Xrotation Yrotation
                      JOINT LeftHandRing1
                      {
                        OFFSET 0 -7.75 -0.2
                        CHANNELS 6 Xposition Yposition Zposition Zrotation Xrotation Yrotation
                        JOINT LeftHandRing2
                        {
                          OFFSET 0 -3.8 0
                          CHANNELS 6 Xposition Yposition Zposition Zrotation Xrotation Yrotation
                          JOINT LeftHandRing3
                          {
                            OFFSET 0 -3.4 0
                            CHANNELS 6 Xposition Yposition Zposition Zrotation Xrotation Yrotation
                            End Site
                            {
                              OFFSET 0 -2.6 0
                            }
                          }
                        }
                      }
                    }
                    JOINT LeftHandPinky
                    {
                      OFFSET -0.75 -1.75 -1.85
                      CHANNELS 6 Xposition Yposition Zposition Zrotation Xrotation Yrotation
                      JOINT LeftHandPinky1
                      {
                        OFFSET 0 -7.15 -1
                        CHANNELS 6 Xposition Yposition Zposition Zrotation Xrotation Yrotation
                        JOINT LeftHandPinky2
                        {
                          OFFSET 0 -3 0
                          CHANNELS 6 Xposition Yposition Zposition Zrotation Xrotation Yrotation
                          JOINT LeftHandPinky3
                          {
                            OFFSET 0 -2.35 0
                            CHANNELS 6 Xposition Yposition Zposition Zrotation Xrotation Yrotation
                            End Site
                            {
                              OFFSET 0 -2.1 0
                            }
                          }
                        }
                      }
                    }
                  }
                }
              }
            }
          }
          JOINT RightShoulder
          {
            OFFSET -5 17 0
            CHANNELS 6 Xposition Yposition Zposition Zrotation Xrotation Yrotation
            JOINT RightShoulder2
            {
              OFFSET -6.45 0 0
              CHANNELS 6 Xposition Yposition Zposition Zrotation Xrotation Yrotation
              JOINT RightArm
              {
                OFFSET -6.45 0 0
                CHANNELS 6 Xposition Yposition Zposition Zrotation Xrotation Yrotation
                JOINT RightForeArm
                {
                  OFFSET 0 -32.4 -2
                  CHANNELS 6 Xposition Yposition Zposition Zrotation Xrotation Yrotation
                  JOINT RightHand
                  {
                    OFFSET 0 -25.65 2
                    CHANNELS 6 Xposition Yposition Zposition Zrotation Xrotation Yrotation
                    JOINT RightHandThumb1
                    {
                      OFFSET 0.5 -1.5 2.65
                      CHANNELS 6 Xposition Yposition Zposition Zrotation Xrotation Yrotation
                      JOINT RightHandThumb2
                      {
                        OFFSET 0 -3.8 3.7
                        CHANNELS 6 Xposition Yposition Zposition Zrotation Xrotation Yrotation
                        JOINT RightHandThumb3
                        {
                          OFFSET 0 -3 2.7
                          CHANNELS 6 Xposition Yposition Zposition Zrotation Xrotation Yrotation
                          End Site
                          {
                            OFFSET 0 -2.3 1.8
                          }
                        }
                      }
                    }
                    JOINT RightHandIndex
                    {
                      OFFSET 0 -1.9 1.6
                      CHANNELS 6 Xposition Yposition Zposition Zrotation Xrotation Yrotation
                      JOINT RightHandIndex1
                      {
                        OFFSET 0 -8.3 1.9
                        CHANNELS 6 Xposition Yposition Zposition Zrotation Xrotation Yrotation
                        JOINT RightHandIndex2
                        {
                          OFFSET 0 -4.5 0
                          CHANNELS 6 Xposition Yposition Zposition Zrotation Xrotation Yrotation
                          JOINT RightHandIndex3
                          {
                            OFFSET 0 -3.4 0
                            CHANNELS 6 Xposition Yposition Zposition Zrotation Xrotation Yrotation
                            End Site
                            {
                              OFFSET 0 -2.6 0
                            }
                          }
                        }
                      }
                    }
                    JOINT RightHandMiddle
                    {
                      OFFSET 0.25 -2.2 0.4
                      CHANNELS 6 Xposition Yposition Zposition Zrotation Xrotation Yrotation
                      JOINT RightHandMiddle1
                      {
                        OFFSET 0 -8.3 1
                        CHANNELS 6 Xposition Yposition Zposition Zrotation Xrotation Yrotation
                        JOINT RightHandMiddle2
                        {
                          OFFSET 0 -4.65 0
                          CHANNELS 6 Xposition Yposition Zposition Zrotation Xrotation Yrotation
                          JOINT RightHandMiddle3
                          {
                            OFFSET 0 -3.3 0
                            CHANNELS 6 Xposition Yposition Zposition Zrotation Xrotation Yrotation
                            End Site
                            {
                              OFFSET 0 -2.7 0
                            }
                          }
                        }
                      }
                    }
                    JOINT RightHandRing
                    {
                      OFFSET 0.5 -2.15 -0.8
                      CHANNELS 6 Xposition Yposition Zposition Zrotation Xrotation Yrotation
                      JOINT RightHandRing1
                      {
                        OFFSET 0 -7.75 -0.2
                        CHANNELS 6 Xposition Yposition Zposition Zrotation Xrotation Yrotation
                        JOINT RightHandRing2
                        {
                          OFFSET 0 -3.8 0
                          CHANNELS 6 Xposition Yposition Zposition Zrotation Xrotation Yrotation
                          JOINT RightHandRing3
                          {
                            OFFSET 0 -3.4 0
                            CHANNELS 6 Xposition Yposition Zposition Zrotation Xrotation Yrotation
                            End Site
                            {
                              OFFSET 0 -2.6 0
                            }
                          }
                        }
                      }
                    }
                    JOINT RightHandPinky
                    {
                      OFFSET 0.75 -1.75 -1.85
                      CHANNELS 6 Xposition Yposition Zposition Zrotation Xrotation Yrotation
                      JOINT RightHandPinky1
                      {
                        OFFSET 0 -7.15 -1
                        CHANNELS 6 Xposition Yposition Zposition Zrotation Xrotation Yrotation
                        JOINT RightHandPinky2
                        {
                          OFFSET 0 -3 0
                          CHANNELS 6 Xposition Yposition Zposition Zrotation Xrotation Yrotation
                          JOINT RightHandPinky3
                          {
                            OFFSET 0 -2.35 0
                            CHANNELS 6 Xposition Yposition Zposition Zrotation Xrotation Yrotation
                            End Site
                            {
                              OFFSET 0 -2.1 0
                            }
                          }
                        }
                      }
                    }
                  }
                }
              }
            }
          }
        }
      }
    }
  }
  JOINT LeftUpLeg
  {
    OFFSET 8 0 0
    CHANNELS 6 Xposition Yposition Zposition Zrotation Xrotation Yrotation
    JOINT LeftLeg
    {
      OFFSET 0 -45 -1
      CHANNELS 6 Xposition Yposition Zposition Zrotation Xrotation Yrotation
      JOINT LeftFoot
      {
        OFFSET 0 -41 -2
        CHANNELS 6 Xposition Yposition Zposition Zrotation Xrotation Yrotation
        JOINT LeftToeBase
        {
          OFFSET 0 -7.5 12.5
          CHANNELS 6 Xposition Yposition Zposition Zrotation Xrotation Yrotation
          JOINT LeftFootToe
          {
            OFFSET 0 0 4
            CHANNELS 6 Xposition Yposition Zposition Zrotation Xrotation Yrotation
            End Site
            {
              OFFSET 0 0 0
            }
          }
        }
      }
    }
  }
  JOINT RightUpLeg
  {
    OFFSET -8 0 0
    CHANNELS 6 Xposition Yposition Zposition Zrotation Xrotation Yrotation
    JOINT RightLeg
    {
      OFFSET 0 -45 -1
      CHANNELS 6 Xposition Yposition Zposition Zrotation Xrotation Yrotation
      JOINT RightFoot
      {
        OFFSET 0 -41 -2
        CHANNELS 6 Xposition Yposition Zposition Zrotation Xrotation Yrotation
        JOINT RightToeBase
        {
          OFFSET 0 -7.5 12.5
          CHANNELS 6 Xposition Yposition Zposition Zrotation Xrotation Yrotation
          JOINT RightFootToe
          {
            OFFSET 0 0 4
            CHANNELS 6 Xposition Yposition Zposition Zrotation Xrotation Yrotation
            End Site
            {
              OFFSET 0 0 0
            }
          }
        }
      }
    }
  }
}
MOTION
Frames:	3
Frame Time:	0.0111111
-449.108 92.586 1392.82 -3.06642 0.331794 44.8955 0 8 1.13687e-13 16.8497 22.9799 -5.77633 0 8 -1.13687e-13 3.16148 7.90794 0.534887 2.27374e-13 8 -1.13687e-13 1.58883 3.95478 0.315631 0 8 0 1.58445 3.94211 0.314907 0 17 -5.68434e-14 3.07749 5.027 -14.0314 -1.13687e-13 10.8 1.13687e-13 9.12727 10.3617 -33.8205 5 17 5.68434e-14 -4.57979 -3.60003 -10.1125 6.45 1.13687e-13 0 1.11924 0.957246 2.03673 6.45 0 1.13687e-13 20.8406 14.5196 37.4566 0 -32.4 -2 -104.667 -61.8631 -143.221 -2.27374e-13 -25.65 2 -9.2862 -5.91312 -24.5352 -0.5 -1.5 2.65 9.55851 -45.8837 155.272 0 -3.8 3.7 -0.0899947 44.0309 0.0255843 2.27374e-13 -3 2.7 0.0416437 24.8013 -0.00750253 1.13687e-13 -1.9 1.6 -9.54166e-15 1.27222e-14 -6.36111e-15 0 -8.3 1.9 -26.6909 13.4735 3.81447 0 -4.5 -2.27374e-13 -76.3771 0.107342 -0.0288593 0 -3.4 -2.27374e-13 -60.5929 0.110599 0.11299 -0.25 -2.2 0.4 -9.54166e-15 1.27222e-14 -6.36111e-15 0 -8.3 1 -37.5018 16.6032 7.54612 -1.13687e-13 -4.65 0 -74.2851 0.152521 -0.0150153 1.13687e-13 -3.3 0 -90.0002 2.88238e-15 9.54166e-15 -0.5 -2.15 -0.8 -9.54166e-15 1.27222e-14 -6.36111e-15 -1.13687e-13 -7.75 -0.2 -85.0707 0.991626 12.6862 -5.68434e-14 -3.8 -2.27374e-13 -1.77348 0.000501161 -0.00169874 0 -3.4 0 -90.0002 -0.000411987 0.0018158 -0.75 -1.75 -1.85 -9.54166e-15 1.27222e-14 -6.36111e-15 -3.41061e-13 -7.15 -1 -84.1311 2.18923 13.2157 0 -3 2.27374e-13 -27.1311 -0.116112 -0.011772 -2.84217e-14 -2.35 -2.27374e-13 7.21903 -0.0395813 0.0028903 -5 17 5.68434e-14 7.55133 -4.56451 -0.915281 -6.45 0 0 -2.82228 0.405095 -0.90367 -6.45 0 5.68434e-14 -7.23718 -13.3135 -14.0104 -2.27374e-13 -32.4 -2 0.91682 -27.3159 -8.02231 1.13687e-13 -25.65 2 -16.7851 -2.4808 18.0765 0.5 -1.5 2.65 -2.97248 -36.6287 -4.83256 0 -3.8 3.7 0.317332 20.2577 -0.125249 -2.27374e-13 -3 2.7 0.0167166 31.2617 -0.0214466 0 -1.9 1.6 4.17448e-15 2.18663e-15 -3.18055e-15 0 -8.3 1.9 5.89003 -12.8674 0.572686 0 -4.5 0 3.32787 -0.00550147 -0.00203271 4.54747e-13 -3.4 -2.27374e-13 3.18145 -0.000408554 -0.00234007 0.25 -2.2 0.4 4.17448e-15 2.18663e-15 -3.18055e-15 -2.27374e-13 -8.3 1 14.4506 -5.37986 0.433411 -2.27374e-13 -4.65 0 56.1446 -0.00672965 0.00249948 0 -3.3 -1.13687e-13 38.9589 -0.00836137 0.0052182 0.5 -2.15 -0.8 4.17448e-15 2.18663e-15 -3.18055e-15 2.27374e-13 -7.75 -0.2 28.3454 -13.5953 2.24143 0 -3.8 2.27374e-13 3.31812 0.00610201 0.00578017 0 -3.4 -1.13687e-13 3.17065 0.00576357 0.0114526 0.75 -1.75 -1.85 4.17448e-15 2.18663e-15 -3.18055e-15 0 -7.15 -1 31.5524 1.79695 -1.79002 2.27374e-13 -3 1.13687e-13 -2.34251e-08 -0.000730685 -0.00183685 0 -2.35 0 -4.26973e-08 -0.00139607 -0.00175234 8 -1.42109e-14 0 0.459472 -16.51 -10.1711 0 -45 -1 0.0288174 7.40826 -1.55795 0 -41 -2 -0.960042 2.15021 7.88045 -2.27374e-13 -7.5 12.5 7.95139e-16 3.97569e-16 3.18055e-15 2.27374e-13 0 4 2.07783 -10.0354 52.4549 -8 -2.84217e-14 0 0.978915 -13.5963 -14.142 0 -45 -1 0.0252074 8.19928 -0.98799 -2.27374e-13 -41 -2 -1.8669 2.86423 17.7239 0 -7.5 12.5 1.94126e-19 -2.91188e-19 9.54166e-15 0 7.10543e-15 4 5.2633 -4.07219 12.4084 
-449.133 92.5826 1392.85 -3.07781 0.301421 45.002 0 8 1.13687e-13 16.8379 22.9878 -5.77139 0 8 0 3.15056 7.90829 0.535992 0 8 0 1.58345 3.9551 0.315378 -4.54747e-13 8 -1.13687e-13 1.57908 3.94205 0.314654 0 17 0 3.07997 5.00064 -14.0017 -1.13687e-13 10.8 1.7053e-13 9.11762 10.3036 -33.7428 5 17 2.27374e-13 -4.57979 -3.60003 -10.1125 6.45 0 0 1.11924 0.957246 2.03673 6.45 0 0 20.8406 14.5196 37.4566 -1.13687e-13 -32.4 -2 -104.657 -61.879 -143.196 -2.27374e-13 -25.65 2 -9.19683 -4.90501 -24.4086 -0.5 -1.5 2.65 9.79251 -46.2049 155.464 0 -3.8 3.7 -0.0773148 44.5968 0.0265446 1.13687e-13 -3 2.7 0.0143783 23.3617 -0.0162994 0 -1.9 1.6 -6.36111e-15 1.59028e-14 -3.18055e-15 -1.13687e-13 -8.3 1.9 -27.5017 13.7527 3.98919 2.27374e-13 -4.5 2.27374e-13 -74.3419 0.116086 -0.0552175 0 -3.4 0 -58.0778 0.142378 0.0962548 -0.25 -2.2 0.4 -6.36111e-15 1.59028e-14 -3.18055e-15 0 -8.3 1 -38.5184 17.0136 7.88976 -2.27374e-13 -4.65 0 -72.6252 0.120585 -0.0259698 1.13687e-13 -3.3 0 -90.0002 1.33186e-14 -6.36111e-15 -0.5 -2.15 -0.8 -6.36111e-15 1.59028e-14 -3.18055e-15 0 -7.75 -0.2 -85.4814 1.26486 12.9208 0 -3.8 0 -1.77348 0.000543862 -0.00170281 0 -3.4 0 -90.0002 -0.000411987 0.0018158 -0.75 -1.75 -1.85 -6.36111e-15 1.59028e-14 -3.18055e-15 -2.27374e-13 -7.15 -1 -84.8436 1.96067 13.3714 -5.68434e-14 -3 2.27374e-13 -28.724 -0.0882112 0.00142584 0 -2.35 0 6.681 -0.0298767 0.00439453 -5 17 2.27374e-13 7.55219 -4.55803 -1.00707 -6.45 0 -5.68434e-14 -2.81675 0.396463 -0.898223 -6.45 0 5.68434e-14 -7.19451 -13.2193 -14.1164 0 -32.4 -2 0.905781 -27.1199 -8.09842 -1.13687e-13 -25.65 2 -16.9705 -2.62557 17.6768 0.5 -1.5 2.65 -3.00945 -36.614 -4.99665 0 -3.8 3.7 0.317743 20.4462 -0.12541 0 -3 2.7 0.0166792 30.9223 -0.0212801 0 -1.9 1.6 2.98177e-15 1.39149e-15 -0 0 -8.3 1.9 5.93595 -12.9298 0.575958 0 -4.5 1.13687e-13 3.44469 -0.00538004 -0.00200451 4.54747e-13 -3.4 0 3.2883 -0.000393183 -0.00230323 0.25 -2.2 0.4 2.98177e-15 1.39149e-15 -0 -2.27374e-13 -8.3 1 14.4974 -5.35343 0.429258 -2.27374e-13 -4.65 0 56.4054 -0.00447494 0.00257766 0 -3.3 0 39.1598 -0.00811511 0.00488296 0.5 -2.15 -0.8 2.98177e-15 1.39149e-15 -0 2.27374e-13 -7.75 -0.2 28.4539 -13.4419 2.21679 0 -3.8 -1.13687e-13 3.17758 0.00584035 0.00566825 -2.27374e-13 -3.4 -3.41061e-13 3.04292 0.00552966 0.0112499 0.75 -1.75 -1.85 2.98177e-15 1.39149e-15 -0 0 -7.15 -1 31.3675 1.80899 -1.77721 2.27374e-13 -3 0 -2.37279e-08 -0.00072573 -0.0018733 -1.13687e-13 -2.35 -2.27374e-13 -4.48193e-08 -0.00143775 -0.00178609 8 -1.42109e-14 1.13687e-13 0.496868 -16.5516 -10.0551 0 -45 -1 0.0312089 7.49466 -1.55817 0 -41 -2 -0.961938 2.08978 7.67523 -2.27374e-13 -7.5 12.5 0 7.95139e-16 -0 0 0 4 2.09413 -10.0237 52.4501 -8 -1.42109e-14 1.13687e-13 1.01431 -13.5846 -14.1573 0 -45 -1 0.0251943 8.21565 -0.987591 0 -41 -2 -1.87915 2.8429 17.8384 2.27374e-13 -7.5 12.5 -5.82377e-19 -9.70628e-20 6.36111e-15 2.27374e-13 7.09849e-15 4 5.24163 -4.10402 12.409 
-449.156 92.5794 1392.87 -3.08594 0.273598 45.0982 2.27374e-13 8 0 16.8184 22.998 -5.76432 0 8 0 3.13799 7.90864 0.536951 0 8 -5.68434e-14 1.57715 3.95542 0.315147 0 8 -1.13687e-13 1.57281 3.94199 0.314423 0 17 0 3.08588 4.97205 -13.9722 -3.41061e-13 10.8 2.27374e-13 9.11513 10.2388 -33.6655 5 17 2.27374e-13 -4.57979 -3.60003 -10.1125 6.45 0 0 1.11924 0.957246 2.03673 6.45 1.13687e-13 1.13687e-13 20.8406 14.5196 37.4566 0 -32.4 -2 -104.646 -61.8949 -143.172 -2.27374e-13 -25.65 2 -8.73368 -4.33218 -24.1625 -0.5 -1.5 2.65 9.78491 -46.2595 155.359 0 -3.8 3.7 -0.0665696 45.0822 0.0202367 2.27374e-13 -3 2.7 -0.000763416 22.4113 0.000291054 1.13687e-13 -1.9 1.6 -9.54166e-15 9.54166e-15 -0 0 -8.3 1.9 -28.3702 13.9464 4.14011 2.27374e-13 -4.5 0 -71.745 0.0812378 -0.0810921 -2.84217e-14 -3.4 0 -55.0024 0.137317 0.0333515 -0.25 -2.2 0.4 -9.54166e-15 9.54166e-15 -0 0 -8.3 1 -39.3667 17.3629 8.14469 -2.27374e-13 -4.65 2.27374e-13 -71.1278 0.0721519 -0.0276351 1.13687e-13 -3.3 2.27374e-13 -90.0002 2.06736e-14 6.36111e-15 -0.5 -2.15 -0.8 -9.54166e-15 9.54166e-15 -0 1.13687e-13 -7.75 -0.2 -85.753 1.39225 13.0357 -5.68434e-14 -3.8 -2.27374e-13 -1.77348 0.00058818 -0.00171119 5.68434e-14 -3.4 0 -90.0002 -0.000411987 0.0018158 -0.75 -1.75 -1.85 -9.54166e-15 9.54166e-15 -0 -3.41061e-13 -7.15 -1 -85.2714 1.75767 13.4334 1.13687e-13 -3 2.27374e-13 -30.3626 -0.0529918 0.0104318 -5.68434e-14 -2.35 -2.27374e-13 6.13071 -0.0178833 0.00579834 -5 17 2.27374e-13 7.56196 -4.55417 -1.11157 -6.45 0 0 -2.80755 0.384917 -0.890924 -6.45 0 1.13687e-13 -7.2046 -13.1473 -14.1831 1.13687e-13 -32.4 -2 0.909747 -26.9267 -8.17438 2.27374e-13 -25.65 2 -17.0928 -2.76988 17.2866 0.5 -1.5 2.65 -3.05604 -36.6058 -5.15039 0 -3.8 3.7 0.318085 20.6041 -0.12555 0 -3 2.7 0.0166515 30.6227 -0.0211209 0 -1.9 1.6 9.93923e-16 2.78299e-15 -6.36111e-15 0 -8.3 1.9 5.94974 -12.9579 0.578896 -2.27374e-13 -4.5 0 3.54746 -0.0052166 -0.00197567 0 -3.4 2.27374e-13 3.38172 -0.000375272 -0.00226586 0.25 -2.2 0.4 9.93923e-16 2.78299e-15 -6.36111e-15 -2.27374e-13 -8.3 1 14.5069 -5.29842 0.424463 -2.27374e-13 -4.65 0 56.6455 -0.00413733 0.00266009 0 -3.3 -2.27374e-13 39.3459 -0.00789092 0.00457745 0.5 -2.15 -0.8 9.93923e-16 2.78299e-15 -6.36111e-15 2.27374e-13 -7.75 -0.2 28.5334 -13.2993 2.1925 0 -3.8 1.13687e-13 3.06298 0.00557803 0.00556478 0 -3.4 1.13687e-13 2.93825 0.00529427 0.0110438 0.75 -1.75 -1.85 9.93923e-16 2.78299e-15 -6.36111e-15 0 -7.15 -1 31.2884 1.78118 -1.76242 2.27374e-13 -3 1.13687e-13 -2.38829e-08 -0.000718366 -0.00190487 -1.13687e-13 -2.35 0 -4.67648e-08 -0.00147614 -0.00181515 8 -4.26326e-14 -1.13687e-13 0.526744 -16.5853 -9.96624 0 -45 -1 0.0331778 7.56571 -1.55833 -2.27374e-13 -41 -2 -0.960155 2.03618 7.51102 -2.27374e-13 -7.5 12.5 3.97569e-16 -7.95139e-16 9.54166e-15 2.27374e-13 0 4 2.10872 -10.0121 52.4452 -8 -1.42109e-14 0 1.04486 -13.5746 -14.1658 0 -45 -1 0.0250227 8.22873 -0.986539 -2.27374e-13 -41 -2 -1.88953 2.82769 17.9472 2.27374e-13 -7.5 12.5 1.07761e-35 1.94126e-19 -3.18055e-15 -2.27374e-13 7.09155e-15 4 5.22052 -4.13675 12.3714 
